name C:\Users\u0101727\Documents\MyRepositories\predictivesimulations\OpenSimModel\subject1\EMG\EMG_gait_65.mot
datacolumns 25
datarows 7
range 3.34600000 3.35200000
endheader
time	HamL_r	TA_r	PerL_r	GL_r	HamM_r	Sol_r	VL_r	VM_r	PerB_l	TA_l	PerL_l	GL_l	GM_l	Sol_l	VL_l	VM_l	AddL_l	RF_l	TFL_l	GluMed_l	HamL_l	HamM_l	GluMed_r	RF_r	
          3.34600000	          0.00390330	          0.00381850	          0.00442630	          0.00372891	          0.00501265	          0.03698138	          0.01187021	          0.00395442	          0.01746348	          0.06738378	          0.02644792	          0.01045982	          0.01220880	          0.01489220	          0.00402250	          0.00392644	          0.00663731	          0.00698956	          0.03845681	          0.00718831	          0.00539675	          0.00443426	          0.01991393	          0.00640609	
          3.34700000	          0.00386898	          0.00381836	          0.00442176	          0.00368640	          0.00502496	          0.03701866	          0.01179769	          0.00398199	          0.01774818	          0.06709872	          0.02681474	          0.01062171	          0.01232617	          0.01506082	          0.00401200	          0.00391964	          0.00665141	          0.00698955	          0.03788164	          0.00714727	          0.00544855	          0.00445552	          0.01965900	          0.00638288	
          3.34800000	          0.00383777	          0.00382015	          0.00441672	          0.00364539	          0.00503681	          0.03704231	          0.01172504	          0.00401023	          0.01803100	          0.06684968	          0.02718170	          0.01078828	          0.01245002	          0.01522425	          0.00400272	          0.00391212	          0.00666032	          0.00698766	          0.03728334	          0.00710402	          0.00550026	          0.00447750	          0.01941307	          0.00635857	
          3.34900000	          0.00380968	          0.00382392	          0.00441111	          0.00360592	          0.00504837	          0.03705091	          0.01165264	          0.00403902	          0.01831053	          0.06663718	          0.02754755	          0.01095939	          0.01258043	          0.01538139	          0.00399471	          0.00390385	          0.00666424	          0.00698397	          0.03666605	          0.00705886	          0.00555152	          0.00450025	          0.01917685	          0.00633289	
          3.35000000	          0.00378470	          0.00382966	          0.00440495	          0.00356799	          0.00505975	          0.03704314	          0.01158091	          0.00406820	          0.01858516	          0.06646140	          0.02791085	          0.01113484	          0.01271747	          0.01553116	          0.00398804	          0.00389480	          0.00666335	          0.00697850	          0.03603353	          0.00701221	          0.00560193	          0.00452376	          0.01895087	          0.00630565	
          3.35100000	          0.00376278	          0.00383731	          0.00439836	          0.00353156	          0.00507100	          0.03701811	          0.01151026	          0.00409758	          0.01885314	          0.06632254	          0.02827009	          0.01131441	          0.01286120	          0.01567256	          0.00398278	          0.00388500	          0.00665787	          0.00697127	          0.03538904	          0.00696458	          0.00565114	          0.00454800	          0.01873557	          0.00627675	
          3.35200000	          0.00374387	          0.00384678	          0.00439148	          0.00349662	          0.00508213	          0.03697553	          0.01144108	          0.00412700	          0.01911255	          0.06622126	          0.02862372	          0.01149787	          0.01301157	          0.01580474	          0.00397898	          0.00387454	          0.00664800	          0.00696222	          0.03473540	          0.00691653	          0.00569879	          0.00457291	          0.01853132	          0.00624614	
